{"title":"Grudge Match 2013 NEW 720p WEBRip CROPPED x264 Pimp4003","uid":9478682,"size":2739214473,"categoryP":"video","categoryS":"hd___movies","magnet":"?xt=urn:btih:d077559fce6c62daadf425aa6738b538a88ed75d&amp;dn=Grudge+Match+2013+NEW+720p+WEBRip+CROPPED+x264+Pimp4003&amp;tr=udp%3A%2F%2Ftracker.openbittorrent.com%3A80&amp;tr=udp%3A%2F%2Fopen.demonii.com%3A1337&amp;tr=udp%3A%2F%2Ftracker.coppersurfer.tk%3A6969&amp;tr=udp%3A%2F%2Fexodus.desync.com%3A6969","seeders":1,"leechers":0,"uploader":"shawnmurthy","files":-1,"time":1389751149,"description":"Get all Pimp4003 newest releases first at \n\nWWW.PIMP4003.NET with VIP downloads speed\n\nRegister here and you can chat, request movies, view upcoming uploads and much more\n\nUPLOAD UNLIMITED IMAGES AND UP TO 10MB IN FILE SIZES FOR FREE....\n &lt;a href=&quot;\nhttp://www.piczhub.com&quot; rel=&quot;nofollow&quot; target=&quot;_NEW&quot;&gt;\nhttp://www.piczhub.com&lt;/a&gt;\n\n\nPIMP4003 AND PIMPRG PRESENTS\n\nGrudge Match 2013 NEW 720p WEBRip CROPPED x264 Pimp4003\n &lt;a href=&quot;\nhttp://www.imdb.com/title/tt1661382/&quot; rel=&quot;nofollow&quot; target=&quot;_NEW&quot;&gt;\nhttp://www.imdb.com/title/tt1661382/&lt;/a&gt;\n\nA pair of aging boxing rivals are coaxed out of retirement to fight one final bout -- 30 years after their last match.\n\nDirector: Peter Segal\nWriters: Tim Kelleher (screenplay), Rodney Rothman (screenplay), 1 more credit Â»\nStars: Robert De Niro, Sylvester Stallone, Kim Basinger | See full cast and crew Â»\n\nGenre: Comedy | Drama\nFile Size: 2.55GB\nSource: EVIL-DEAD\nLanguage: ENGLISH\n\nVideo\nID                                       : 2\nFormat                                   : AVC\nFormat/Info                              : Advanced Video Codec\nFormat profile                           : &lt;a class=&quot;__cf_email__&quot; href=&quot;/cdn-cgi/l/email-protection&quot; data-cfemail=&quot;f6b49785939a9f9893b6bac5d8c6&quot;&gt;[email&amp;#160;protected]&lt;/a&gt;&lt;script cf-hash='f9e31' type=&quot;text/javascript&quot;&gt;\n/* &lt;![CDATA[ */!function(){try{var t=&quot;currentScript&quot;in document?document.currentScript:function(){for(var t=document.getElementsByTagName(&quot;script&quot;),e=t.length;e--;)if(t[e].getAttribute(&quot;cf-hash&quot;))return t[e]}();if(t&amp;&amp;t.previousSibling){var e,r,n,i,c=t.previousSibling,a=c.getAttribute(&quot;data-cfemail&quot;);if(a){for(e=&quot;&quot;,r=parseInt(a.substr(0,2),16),n=2;a.length-n;n+=2)i=parseInt(a.substr(n,2),16)^r,e+=String.fromCharCode(i);e=document.createTextNode(e),c.parentNode.replaceChild(e,c)}}}catch(u){}}();/* ]]&gt; */&lt;/script&gt;\nFormat settings, CABAC                   : No\nFormat settings, ReFrames                : 1 frame\nCodec ID                                 : avc1\nCodec ID/Info                            : Advanced Video Coding\nDuration                                 : 1h 52mn\nBit rate                                 : 3 099 Kbps\nWidth                                    : 1 280 pixels\nHeight                                   : 720 pixels\nDisplay aspect ratio                     : 16:9\nFrame rate mode                          : Constant\nFrame rate                               : 29.970 fps\nOriginal frame rate                      : 29.000 fps\nColor space                              : YUV\nChroma subsampling                       : 4:2:0\nBit depth                                : 8 bits\nScan type                                : Progressive\nBits/(Pixel*Frame)                       : 0.112\nStream size                              : 2.45 GiB (96%)\nWriting library                          : Ã„\nLanguage                                 : English\n\nAudio\nID                                       : 1\nFormat                                   : AAC\nFormat/Info                              : Advanced Audio Codec\nFormat profile                           : LC\nCodec ID                                 : 40\nDuration                                 : 1h 52mn\nBit rate mode                            : Constant\nBit rate                                 : 128 Kbps\nChannel(s)                               : 2 channels\nChannel positions                        : Front: L R\nSampling rate                            : 48.0 KHz\nCompression mode                         : Lossy\nStream size                              : 103 MiB (4%)\nLanguage                                 : English\n\n\nALWAYS ON SEED BOX\n\nGREETZ TO PIMPRG AND ALL OTHER GROUPS\n\nPimp4003 | SUJAIDR | PIMPRG | JUNAIDZIA | RICKYKT | LOKKIODDIN | SCENEDL | Ali1997 | AND ALL OTHER P2P AND SCENE GROUPS\n &lt;a href=&quot;\nhttp://someimage.com/7bDsiVt&quot; rel=&quot;nofollow&quot; target=&quot;_NEW&quot;&gt;\nhttp://someimage.com/7bDsiVt&lt;/a&gt; &lt;a href=&quot;\nhttp://someimage.com/QXwQgNL&quot; rel=&quot;nofollow&quot; target=&quot;_NEW&quot;&gt;\nhttp://someimage.com/QXwQgNL&lt;/a&gt; &lt;a href=&quot;\nhttp://someimage.com/mZznI67&quot; rel=&quot;nofollow&quot; target=&quot;_NEW&quot;&gt;\nhttp://someimage.com/mZznI67&lt;/a&gt; &lt;a href=&quot;\nhttp://someimage.com/iR4YaIl&quot; rel=&quot;nofollow&quot; target=&quot;_NEW&quot;&gt;\nhttp://someimage.com/iR4YaIl&lt;/a&gt; &lt;a href=&quot;\nhttp://someimage.com/HNpEOSX&quot; rel=&quot;nofollow&quot; target=&quot;_NEW&quot;&gt;\nhttp://someimage.com/HNpEOSX&lt;/a&gt;\n","torrent":{"xt":"urn:btih:d077559fce6c62daadf425aa6738b538a88ed75d","amp;dn":"Grudge+Match+2013+NEW+720p+WEBRip+CROPPED+x264+Pimp4003","amp;tr":["udp%3A%2F%2Ftracker.openbittorrent.com%3A80","udp%3A%2F%2Fopen.demonii.com%3A1337","udp%3A%2F%2Ftracker.coppersurfer.tk%3A6969","udp%3A%2F%2Fexodus.desync.com%3A6969"],"infoHash":"d077559fce6c62daadf425aa6738b538a88ed75d","infoHashBuffer":{"type":"Buffer","data":[208,119,85,159,206,108,98,218,173,244,37,170,103,56,181,56,168,142,215,93]},"announce":[],"urlList":[]}}